<svg width="31" height="25" viewBox="0 0 31 25" fill="none" xmlns="http://www.w3.org/2000/svg">
<path d="M27.1666 0.833252H3.83329C2.22913 0.833252 0.931209 2.14575 0.931209 3.74992L0.916626 21.2499C0.916626 22.8541 2.22913 24.1666 3.83329 24.1666H27.1666C28.7708 24.1666 30.0833 22.8541 30.0833 21.2499V3.74992C30.0833 2.14575 28.7708 0.833252 27.1666 0.833252ZM26.5833 7.03117L16.2729 13.477C15.8062 13.7687 15.1937 13.7687 14.727 13.477L4.41663 7.03117C4.05204 6.79784 3.83329 6.40409 3.83329 5.98117C3.83329 5.00409 4.89788 4.42075 5.72913 4.93117L15.5 11.0416L25.2708 4.93117C26.102 4.42075 27.1666 5.00409 27.1666 5.98117C27.1666 6.40409 26.9479 6.79784 26.5833 7.03117Z" fill="white"/>
</svg>
