<svg width="27" height="27" viewBox="0 0 27 27" fill="none" xmlns="http://www.w3.org/2000/svg">
<path d="M24.0438 18.2537L20.3396 17.8308C19.4501 17.7287 18.5751 18.035 17.948 18.6621L15.2646 21.3454C11.1376 19.2454 7.75423 15.8767 5.65423 11.735L8.35214 9.03708C8.97923 8.40999 9.28548 7.53499 9.18339 6.64541L8.76048 2.97041C8.58548 1.49749 7.34589 0.38916 5.85839 0.38916H3.33548C1.68756 0.38916 0.316726 1.75999 0.418809 3.40791C1.19173 15.8621 11.1521 25.8079 23.5917 26.5808C25.2396 26.6829 26.6105 25.3121 26.6105 23.6642V21.1412C26.6251 19.6683 25.5167 18.4287 24.0438 18.2537Z" fill="white"/>
</svg>
